# xmcd
#
# Track frame offsets:
#	150
#	15630
#	31945
#	48839
#	72276
#	90106
#	107927
#	122984
#	137594
#	155280
#	172217
#	188152
#	204706
#	222470
#	235243
#	250919
#	268197
#	284349
#	299476
#	321017
#
# Disc length: 4565 seconds
#
# Revision: 1
# Processed by: cddbd v1.5.2PL0 Copyright (c) Steve Scherf et al.
# Submitted via: audiograbber 1.83.01
#
DISCID=2e11d314
DTITLE=Bruno e Marrone - As 20 Mais
DYEAR=2006
DGENRE=Sertanejo
TTITLE0=Vê Se Toma Juizo
TTITLE1=Quer Casar Comigo?
TTITLE2=Deixa
TTITLE3=Por Te Amar Demais
TTITLE4=Vai Dar Namoro
TTITLE5=Por Um Gole a Mais
TTITLE6=Não Posso Ter Medo de Amar
TTITLE7=Programa de Fim de Semana
TTITLE8=Choram as Rosas
TTITLE9=Essa História Eu Conheço
TTITLE10=Trânsito Parado
TTITLE11=Por Que Choras?
TTITLE12=Marianne
TTITLE13=Feriado Nacional
TTITLE14=Que Pescar Que Nada
TTITLE15=Vida Vazia
TTITLE16=Doce Desejo
TTITLE17=Cuida do Nosso Amor
TTITLE18=Será
TTITLE19=Por Um Minuto
EXTD=
EXTT0=
EXTT1=
EXTT2=
EXTT3=
EXTT4=
EXTT5=
EXTT6=
EXTT7=
EXTT8=
EXTT9=
EXTT10=
EXTT11=
EXTT12=
EXTT13=
EXTT14=
EXTT15=
EXTT16=
EXTT17=
EXTT18=
EXTT19=
PLAYORDER=
